<?xml version="1.0" encoding="utf-8"?>
<!-- Generator: Adobe Illustrator 17.1.0, SVG Export Plug-In . SVG Version: 6.00 Build 0)  -->
<!DOCTYPE svg PUBLIC "-//W3C//DTD SVG 1.1//EN" "http://www.w3.org/Graphics/SVG/1.1/DTD/svg11.dtd">
<svg version="1.1" xmlns="http://www.w3.org/2000/svg" xmlns:xlink="http://www.w3.org/1999/xlink" x="0px" y="0px"
	 viewBox="0 0 32 32" enable-background="new 0 0 32 32" xml:space="preserve">
<g id="Layer_1">
	<g>
		<path fill="#FFFFFF" d="M16,14V2H2v30h12h2h12V14H16z M14,30H4V4h10v10V30z M26,30H16V16h10V30z"/>
		<rect x="6" y="10" fill="#FFFFFF" width="2" height="2"/>
		<rect x="10" y="10" fill="#FFFFFF" width="2" height="2"/>
		<rect x="6" y="14" fill="#FFFFFF" width="2" height="2"/>
		<rect x="10" y="14" fill="#FFFFFF" width="2" height="2"/>
		<rect x="6" y="18" fill="#FFFFFF" width="2" height="2"/>
		<rect x="10" y="18" fill="#FFFFFF" width="2" height="2"/>
		<rect x="6" y="22" fill="#FFFFFF" width="2" height="2"/>
		<rect x="10" y="22" fill="#FFFFFF" width="2" height="2"/>
		<rect x="6" y="26" fill="#FFFFFF" width="2" height="2"/>
		<rect x="10" y="26" fill="#FFFFFF" width="2" height="2"/>
		<rect x="18" y="18" fill="#FFFFFF" width="2" height="2"/>
		<rect x="22" y="18" fill="#FFFFFF" width="2" height="2"/>
		<rect x="18" y="22" fill="#FFFFFF" width="2" height="2"/>
		<rect x="22" y="22" fill="#FFFFFF" width="2" height="2"/>
		<rect x="18" y="26" fill="#FFFFFF" width="2" height="2"/>
		<rect x="22" y="26" fill="#FFFFFF" width="2" height="2"/>
		<rect x="6" y="6" fill="#FFFFFF" width="2" height="2"/>
		<rect x="10" y="6" fill="#FFFFFF" width="2" height="2"/>
	</g>
</g>
<g id="Layer_2" display="none">
</g>
</svg>
