<?xml version="1.0" encoding="utf-8"?>
<!-- Generator: Adobe Illustrator 17.1.0, SVG Export Plug-In . SVG Version: 6.00 Build 0)  -->
<!DOCTYPE svg PUBLIC "-//W3C//DTD SVG 1.1//EN" "http://www.w3.org/Graphics/SVG/1.1/DTD/svg11.dtd">
<svg version="1.1" xmlns="http://www.w3.org/2000/svg" xmlns:xlink="http://www.w3.org/1999/xlink" x="0px" y="0px"
	 viewBox="0 0 32 32" enable-background="new 0 0 32 32" xml:space="preserve">
<g id="Layer_1">
	<g>
		<path fill="#FFFFFF" d="M16,11c-3.9,0-7,3.1-7,7c0,3.9,3.1,7,7,7s7-3.1,7-7C23,14.1,19.9,11,16,11z M16,23c-2.8,0-5-2.2-5-5
			s2.2-5,5-5s5,2.2,5,5S18.8,23,16,23z"/>
		<path fill="#FFFFFF" d="M30,8V6h-6v2h-3V4H11v4H6V6H2v2H0v20h11.4c0,0,0,0,0,0c1.4,0.6,2.9,1,4.6,1s3.2-0.4,4.6-1c0,0,0,0,0,0H32
			V8H30z M13,6h6v1.4h0C18,7.2,17,7,16,7s-2,0.2-3,0.4h0V6z M2,26V10h6.5C6.3,12,5,14.8,5,18s1.3,6,3.5,8H2z M7,18c0-5,4-9,9-9
			s9,4,9,9c0,5-4,9-9,9S7,23,7,18z M30,26h-6.5c2.1-2,3.5-4.8,3.5-8s-1.3-6-3.5-8H30V26z"/>
	</g>
</g>
<g id="Layer_2" display="none">
</g>
</svg>
