<?xml version="1.0" encoding="utf-8"?>
<!-- Generator: Adobe Illustrator 17.1.0, SVG Export Plug-In . SVG Version: 6.00 Build 0)  -->
<!DOCTYPE svg PUBLIC "-//W3C//DTD SVG 1.1//EN" "http://www.w3.org/Graphics/SVG/1.1/DTD/svg11.dtd">
<svg version="1.1" xmlns="http://www.w3.org/2000/svg" xmlns:xlink="http://www.w3.org/1999/xlink" x="0px" y="0px"
	 viewBox="0 0 32 32" enable-background="new 0 0 32 32" xml:space="preserve">
<g id="Layer_1">
	<path fill="#FFFFFF" d="M23.4,4C27,4,30,7,30,10.7c0,6.6-9.3,14-14,17c-4.7-3-14-10.3-14-17C2,7,5,4,8.6,4c2.3,0,4.5,1.2,5.7,3.2
		l1.7,2.9l1.7-2.9C18.9,5.2,21,4,23.4,4 M23.4,2c-3.1,0-5.9,1.7-7.4,4.2C14.5,3.7,11.8,2,8.6,2C3.9,2,0,5.9,0,10.7
		C0,20.6,16,30,16,30s16-9.4,16-19.3C32,5.9,28.1,2,23.4,2L23.4,2z"/>
</g>
<g id="Layer_2" display="none">
</g>
</svg>
