<?xml version="1.0" encoding="utf-8"?>
<!-- Generator: Adobe Illustrator 17.1.0, SVG Export Plug-In . SVG Version: 6.00 Build 0)  -->
<!DOCTYPE svg PUBLIC "-//W3C//DTD SVG 1.1//EN" "http://www.w3.org/Graphics/SVG/1.1/DTD/svg11.dtd">
<svg version="1.1" xmlns="http://www.w3.org/2000/svg" xmlns:xlink="http://www.w3.org/1999/xlink" x="0px" y="0px"
	 viewBox="0 0 32 32" enable-background="new 0 0 32 32" xml:space="preserve">
<g id="Layer_1">
	<g>
		<path fill="#FFFFFF" d="M0,3v26h32V3H0z M30,27H2V5h28V27z"/>
		<path fill="#FFFFFF" d="M22,17l-3,4l-6-8L4,25h24L22,17z M8,23l5-6.7l5,6.7H8z M22,20.3l2,2.7h-4L22,20.3z"/>
		<path fill="#FFFFFF" d="M22,15c2.2,0,4-1.8,4-4c0-2.2-1.8-4-4-4c-2.2,0-4,1.8-4,4C18,13.2,19.8,15,22,15z M22,9c1.1,0,2,0.9,2,2
			c0,1.1-0.9,2-2,2c-1.1,0-2-0.9-2-2C20,9.9,20.9,9,22,9z"/>
	</g>
</g>
<g id="Layer_2" display="none">
</g>
</svg>
