<svg xmlns="http://www.w3.org/2000/svg" preserveAspectRatio="xMidYMid" width="108" height="24" viewBox="0 0 108 24"><defs><style>.cls-3 { fill: #333333; } .cls-5 { fill: #2196F3; } .cls-6 { fill: #e70788; } .cls-7 { fill: #ffcc08; } .cls-8 { fill: #a6ce39; }</style></defs><g id="logosvg" fill-rule="evenodd"><path d="M106.998 15.806H91.143c.603 3.11 3.337 5.458 6.618 5.458 2.283 0 4.3-1.135 5.52-2.872h2.966c-1.47 3.22-4.717 5.46-8.485 5.46-5.15 0-9.324-4.182-9.324-9.34 0-5.157 4.175-9.34 9.325-9.34 5.152 0 9.327 4.183 9.327 9.34 0 .44-.03.87-.09 1.294zM97.76 7.76c-3.28 0-6.014 2.35-6.617 5.46h13.237c-.602-3.11-3.336-5.46-6.62-5.46zM85.327 17.907c0 2.647 1.31 3.12 3.915 3.39v2.554c-4.33 0-6.497-1.844-6.497-5.536V.032h2.583v5.173h2.583V7.79h-2.584v10.117zm-6.75-12.734h2.582V23.85h-2.583V5.174zm0-5.173h2.582v2.587h-2.583V0zm-4.172 0h2.583v23.85h-2.583V0zM70.22 20.964c-1.698 1.78-4.09 2.887-6.742 2.887-5.15 0-9.326-4.18-9.326-9.338 0-5.157 4.175-9.34 9.326-9.34 2.65 0 5.044 1.11 6.742 2.89V5.17h2.583v18.68H70.22v-2.888zM63.478 7.76c-3.724 0-6.743 3.023-6.743 6.752 0 3.73 3.02 6.752 6.743 6.752 3.724 0 6.742-3.022 6.742-6.752S67.202 7.76 63.478 7.76zm-13.22-2.587h2.584V23.85H50.26V5.174zm0-5.173h2.584v2.587H50.26V0zm-4.897 9.73c-1.22-1.223-2.905-1.978-4.767-1.978-1.862 0-3.548.755-4.768 1.977-1.22 1.22-1.975 2.91-1.975 4.774 0 1.865.755 3.553 1.975 4.775 1.22 1.22 2.906 1.977 4.768 1.977 1.862 0 3.548-.756 4.768-1.978.167-.167.324-.342.472-.525h3.066c-.446.873-1.026 1.666-1.71 2.353-1.69 1.69-4.02 2.735-6.595 2.735S35.686 22.797 34 21.108c-.68-.68-1.246-1.466-1.69-2.327-.445.862-1.012 1.65-1.69 2.328-1.688 1.69-4.02 2.735-6.594 2.735-2.575 0-4.906-1.046-6.594-2.735-1.687-1.69-2.73-4.025-2.73-6.604 0-2.58 1.043-4.913 2.73-6.603 1.688-1.69 4.02-2.735 6.594-2.735 2.575 0 4.906 1.046 6.594 2.736.678.68 1.245 1.466 1.69 2.327.444-.86 1.01-1.648 1.69-2.326 1.686-1.69 4.018-2.735 6.593-2.735S45.5 6.21 47.187 7.9c.857.86 1.548 1.884 2.02 3.022H46.31c-.27-.433-.59-.833-.95-1.193zm-16.566 0c-1.22-1.223-2.906-1.978-4.768-1.978-1.862 0-3.548.755-4.768 1.977-1.22 1.22-1.975 2.91-1.975 4.774 0 1.865.755 3.553 1.975 4.775 1.22 1.22 2.906 1.977 4.768 1.977 1.862 0 3.548-.756 4.768-1.978 1.22-1.223 1.975-2.91 1.975-4.776 0-1.865-.756-3.553-1.976-4.775zM11.504 22.48c-.758.494-1.63.85-2.612 1.07-.988.22-2.024.33-3.122.33-.36 0-.81-.027-1.35-.087-.53-.06-1.08-.143-1.64-.258-.553-.11-1.08-.253-1.58-.418-.498-.166-.898-.352-1.2-.556v-3.186c.368.324.806.61 1.31.868.51.258 1.05.478 1.608.654.565.176 1.13.313 1.695.412.57.093 1.097.143 1.574.143 1.662 0 2.902-.308 3.725-.93.817-.614 1.23-1.504 1.23-2.657 0-.626-.14-1.165-.413-1.626-.275-.462-.654-.885-1.13-1.264-.484-.384-1.054-.747-1.712-1.098-.664-.346-1.37-.715-2.134-1.1-.8-.405-1.552-.823-2.25-1.24-.695-.418-1.3-.88-1.814-1.385C1.174 9.65.773 9.08.477 8.44.18 7.805.033 7.058.033 6.2c0-1.054.23-1.966.69-2.746.462-.78 1.07-1.418 1.817-1.923.75-.504 1.607-.878 2.567-1.125C6.06.158 7.043.032 8.037.032c2.27 0 3.926.274 4.968.823V3.9c-1.36-.946-3.11-1.42-5.238-1.42-.592 0-1.18.062-1.77.183-.588.126-1.115.33-1.576.604-.46.28-.833.643-1.123 1.082-.29.44-.434.97-.434 1.61 0 .586.11 1.097.33 1.526.22.428.543.818.97 1.175.428.353.955.7 1.57 1.028.614.335 1.327.698 2.127 1.093.83.414 1.607.842 2.348 1.292.74.45 1.388.95 1.942 1.495.56.55.998 1.153 1.327 1.818.33.665.49 1.428.49 2.285 0 1.137-.22 2.104-.665 2.89-.445.79-1.048 1.433-1.8 1.922z" id="path-1" class="cls-3"/><path d="M105.363 21.256v2.587h2.583v-2.587h-2.583z" id="path-2" class="cls-3"/><path d="M97.76 9.11c-2.006 0-3.756 1.1-4.685 2.727h9.373c-.93-1.628-2.68-2.727-4.687-2.727z" id="path-3" class="cls-5"/><path d="M63.665 9.11c-2.98 0-5.394 2.42-5.394 5.402 0 2.984 2.416 5.402 5.395 5.402 2.98 0 5.394-2.418 5.394-5.402 0-2.983-2.416-5.402-5.395-5.402z" id="path-4" class="cls-6"/><path d="M40.665 9.11c-2.98 0-5.394 2.42-5.394 5.402 0 2.984 2.416 5.402 5.395 5.402 2.98 0 5.394-2.418 5.394-5.402 0-2.983-2.416-5.402-5.395-5.402z" id="path-5" class="cls-7"/><path d="M24.026 9.102c-2.98 0-5.394 2.42-5.394 5.402 0 2.983 2.415 5.402 5.394 5.402 2.98 0 5.394-2.42 5.394-5.402 0-2.983-2.415-5.402-5.394-5.402z" id="path-6" class="cls-8"/></g></svg>